<?xml version="1.0" standalone="no"?>
<!DOCTYPE svg PUBLIC "-//W3C//DTD SVG 20010904//EN"
 "http://www.w3.org/TR/2001/REC-SVG-20010904/DTD/svg10.dtd">
<svg version="1.0" xmlns="http://www.w3.org/2000/svg"
 width="40.000000pt" height="40.000000pt" viewBox="0 0 40.000000 40.000000"
 preserveAspectRatio="xMidYMid meet">

<g transform="translate(0.000000,40.000000) scale(0.100000,-0.100000)"
fill="#000000" stroke="none">
<path d="M158 383 c7 -3 16 -2 19 1 4 3 -2 6 -13 5 -11 0 -14 -3 -6 -6z"/>
<path d="M228 383 c7 -3 16 -2 19 1 4 3 -2 6 -13 5 -11 0 -14 -3 -6 -6z"/>
<path d="M313 350 c15 -12 32 -32 39 -43 l11 -22 -24 21 c-38 34 -64 44 -115
44 -49 0 -107 -27 -118 -55 -4 -13 11 -15 97 -15 l103 0 -4 -35 c-4 -31 -8
-35 -32 -35 -23 0 -40 -15 -40 -35 0 -1 16 1 35 5 31 7 35 6 35 -12 0 -16 -5
-19 -26 -15 -26 5 -54 -14 -54 -36 0 -9 2 -9 8 0 4 6 21 11 38 11 17 -1 36 2
43 6 13 8 15 -13 2 -33 -6 -9 -10 -10 -16 -2 -5 9 -10 9 -20 1 -7 -6 -20 -7
-30 -4 -10 4 -21 1 -26 -7 -16 -26 -9 -39 22 -39 34 0 63 13 98 44 23 20 22
10 -3 -24 -6 -9 -1 -6 11 7 14 14 20 30 16 40 -4 10 -2 14 4 10 15 -10 23 16
23 78 0 39 -4 54 -16 59 -9 3 -14 13 -11 20 7 18 -26 62 -56 77 -15 7 -14 4 6
-11z"/>
<path d="M58 333 c-18 -21 -31 -43 -25 -43 2 0 13 14 25 30 25 33 24 41 0 13z"/>
<path d="M16 265 c-3 -9 -6 -24 -5 -33 0 -9 5 -4 10 12 9 32 6 48 -5 21z"/>
<path d="M70 195 c0 -9 7 -32 17 -53 l16 -37 7 30 c15 60 12 75 -15 75 -16 0
-25 -6 -25 -15z"/>
<path d="M10 164 c0 -10 5 -26 10 -34 8 -11 9 -7 4 15 -8 37 -14 45 -14 19z"/>
<path d="M50 76 c0 -2 8 -10 18 -17 15 -13 16 -12 3 4 -13 16 -21 21 -21 13z"/>
<path d="M104 36 c11 -9 24 -16 30 -16 12 0 7 5 -24 19 -24 11 -24 11 -6 -3z"/>
<path d="M158 13 c6 -2 18 -2 25 0 6 3 1 5 -13 5 -14 0 -19 -2 -12 -5z"/>
<path d="M218 13 c6 -2 18 -2 25 0 6 3 1 5 -13 5 -14 0 -19 -2 -12 -5z"/>
</g>
</svg>
